<svg width="21" height="21" viewBox="0 0 21 21" fill="none" xmlns="http://www.w3.org/2000/svg">
<g opacity="0.844875">
<path fill-rule="evenodd" clip-rule="evenodd" d="M2.1 0H18.9C20.055 0 21 0.945 21 2.1V18.9C21 20.055 20.055 21 18.9 21H2.1C0.945 21 0 20.055 0 18.9V2.1C0 0.945 0.945 0 2.1 0ZM3.15 17.85H6.3V8.4H3.15V17.85ZM4.725 6.615C3.675 6.615 2.835 5.775 2.835 4.725C2.835 3.675 3.675 2.835 4.725 2.835C5.775 2.835 6.615 3.675 6.615 4.725C6.615 5.775 5.775 6.615 4.725 6.615ZM14.7 17.85H17.85V11.865C17.85 9.87 16.17 8.19 14.175 8.19C13.23 8.19 12.075 8.82 11.55 9.66V8.4H8.4V17.85H11.55V12.285C11.55 11.445 12.285 10.71 13.125 10.71C13.965 10.71 14.7 11.445 14.7 12.285V17.85Z" fill="white"/>
</g>
</svg>
